<?xml version="1.0" encoding="UTF-8"?>
<svg width="2121px" height="1301px" viewBox="0 0 2121 1301" version="1.1" xmlns="http://www.w3.org/2000/svg" xmlns:xlink="http://www.w3.org/1999/xlink">
    <!-- Generator: Sketch 48.1 (47250) - http://www.bohemiancoding.com/sketch -->
    <title>Artboard</title>
    <desc>Created with Sketch.</desc>
    <defs>
        <radialGradient cx="50%" cy="0%" fx="50%" fy="0%" r="100%" gradientTransform="translate(0.500000,0.000000),scale(1.000000,0.002804),rotate(90.000000),translate(-0.500000,-0.000000)" id="radialGradient-1">
            <stop stop-color="#E7E6E6" offset="0%"></stop>
            <stop stop-color="#E8E8E8" stop-opacity="0.239130435" offset="100%"></stop>
        </radialGradient>
        <linearGradient x1="100%" y1="0%" x2="25.3392752%" y2="0%" id="linearGradient-2">
            <stop stop-color="#ECECEC" offset="0%"></stop>
            <stop stop-color="#D4D4D4" stop-opacity="0" offset="98.2461735%"></stop>
        </linearGradient>
        <path d="M159.295563,94.850088 C162.812975,83.8940614 170.511651,78.4160481 182.391589,78.4160481 C194.271527,78.4160481 202.234905,83.8940614 206.281724,94.850088 L206.281724,298.124128 C199.880576,305.947116 191.917197,309.85861 182.391589,309.85861 C172.86598,309.85861 165.167305,305.947116 159.295563,298.124128 L159.295563,276.836703 C140.029754,294.924148 119.308925,303.967735 97.1324547,303.967735 C69.1346608,303.967735 45.9883171,293.811091 27.692729,273.497499 C9.53574381,252.766504 0.457387415,226.887932 0.457387415,195.861007 C0.457387415,165.390619 9.53574381,139.99901 27.692729,119.685417 C45.8497141,99.3718251 68.5802553,89.2151814 95.8850345,89.2151814 C119.447534,89.2151814 140.584166,98.9544288 159.295563,118.433216 L159.295563,94.850088 Z M48.2751627,195.861007 C48.2751627,215.339794 53.4726949,231.200854 63.8679154,243.444664 C74.5403418,255.827607 87.9846254,262.018985 104.201169,262.018985 C121.526537,262.018985 135.525224,256.036305 146.19765,244.070764 C156.870077,231.687821 162.20621,215.965893 162.20621,196.904509 C162.20621,177.843124 156.870077,162.121196 146.19765,149.738253 C135.525224,137.633578 121.665138,131.581331 104.616976,131.581331 C88.539035,131.581331 75.0947515,137.703144 64.2837222,149.946953 C53.6112958,162.329896 48.2751627,177.634428 48.2751627,195.861007 Z M382.999589,129.494329 C381.451717,139.619999 377.425533,146.576674 370.921038,150.364354 C364.416542,154.152033 355.552717,154.082466 344.329562,150.155653 C338.231033,137.633576 330.677286,131.372631 321.668095,131.372631 C317.371404,131.372631 313.698481,132.798735 310.649216,135.650986 C307.599952,138.503237 306.075342,142.155455 306.075342,146.607749 C306.075342,154.399264 315.084398,162.121096 333.10278,169.773477 C357.912707,180.486809 374.61411,190.365189 383.207493,199.408912 C391.800875,208.452634 396.097502,220.626693 396.097502,235.931455 C396.097502,255.549376 388.890257,271.966964 374.475551,285.184713 C360.476654,297.70679 343.567349,303.967735 323.747129,303.967735 C289.789408,303.967735 265.742159,287.341448 251.604659,254.088376 C250.872729,242.774818 255.250127,234.966492 264.736853,230.663397 C274.22358,226.360303 283.151998,227.977188 291.522106,235.514054 C297.066224,245.253448 301.29355,251.444826 304.204212,254.088376 C309.886932,259.375475 316.678375,262.018985 324.578742,262.018985 C340.379477,262.018985 348.279726,254.784116 348.279726,240.31416 C348.279726,231.966108 342.181289,224.17471 329.98423,216.939732 C325.27173,214.574451 320.559301,212.278771 315.846801,210.052624 C311.134301,207.826477 306.352571,205.530797 301.501468,203.165516 C287.91838,196.487075 278.35492,189.808734 272.810803,183.130292 C265.742053,174.643106 262.207731,163.721236 262.207731,150.364354 C262.207731,132.694311 268.236868,118.08544 280.295324,106.537302 C292.630986,94.9891638 307.599879,89.2151814 325.202452,89.2151814 C351.121202,89.2151814 370.386722,102.64143 382.999589,129.494329 Z M484.872241,94.850088 L484.872241,298.124128 C479.426067,306.326263 471.62969,310.42733 461.483112,310.42733 C451.336533,310.42733 443.540157,306.326263 438.093983,298.124128 L438.093983,94.850088 C442.334551,84.9121928 450.130928,79.9432452 461.483112,79.9432452 C472.835296,79.9432452 480.631672,84.9121928 484.872241,94.850088 Z M431.025268,31.6973934 C431.025268,23.488476 434.005186,15.3241933 439.965113,9.34142303 C445.925039,3.35865272 453.062984,0.367312434 461.37916,0.367312434 C469.833939,0.367312434 477.041184,3.35865272 483.001111,9.34142303 C488.961037,15.1850592 491.940955,22.3503626 491.940955,30.8375484 C491.940955,39.3247342 488.961037,46.5596037 483.001111,52.5423741 C477.179787,58.5251444 470.041843,61.5164847 461.587063,61.5164847 C453.132284,61.5164847 445.925039,58.5251444 439.965113,52.5423741 C434.005186,46.5596037 431.025268,40.3237134 431.025268,31.6973934 Z M661.798009,129.494329 C660.605554,140.079359 656.642695,147.036034 649.909435,150.364354 C643.176174,153.692673 634.249023,153.623106 623.127982,150.155653 C617.029453,137.633576 609.475706,131.372631 600.466515,131.372631 C596.169824,131.372631 592.496901,132.798735 589.447636,135.650986 C586.398372,138.503237 584.873762,142.155455 584.873762,146.607749 C584.873762,154.399264 593.882818,162.121096 611.9012,169.773477 C636.711127,180.486809 653.41253,190.365189 662.005913,199.408912 C670.599295,208.452634 674.895922,220.626693 674.895922,235.931455 C674.895922,255.549376 667.688677,271.966964 653.273971,285.184713 C639.275074,297.70679 622.365769,303.967735 602.545549,303.967735 C568.587828,303.967735 544.540579,287.341448 530.403079,254.088376 C531.867141,243.089569 536.433873,235.862821 544.103277,232.408131 C551.77268,228.953441 560.511763,229.988749 570.320526,235.514054 C575.864644,245.253448 580.09197,251.444826 583.002632,254.088376 C588.685352,259.375475 595.476795,262.018985 603.377162,262.018985 C619.177897,262.018985 627.078146,254.784116 627.078146,240.31416 C627.078146,231.966108 620.979708,224.17471 608.78265,216.939732 C604.07015,214.574451 599.357721,212.278771 594.645221,210.052624 C589.932721,207.826477 585.150991,205.530797 580.299888,203.165516 C566.7168,196.487075 557.15334,189.808734 551.609223,183.130292 C544.540473,174.643106 541.006151,163.721236 541.006151,150.364354 C541.006151,132.694311 547.035288,118.08544 559.093744,106.537302 C571.429406,94.9891638 586.398299,89.2151814 604.000872,89.2151814 C629.919622,89.2151814 649.185142,102.64143 661.798009,129.494329 Z" id="path-3"></path>
        <linearGradient x1="32.71182%" y1="0%" x2="101.439273%" y2="71.4385779%" id="linearGradient-5">
            <stop stop-color="#1F9D7F" offset="0%"></stop>
            <stop stop-color="#5AD099" offset="81.8240827%"></stop>
            <stop stop-color="#EE9F43" offset="100%"></stop>
        </linearGradient>
        <ellipse id="path-6" cx="168.185511" cy="168.830151" rx="168.185511" ry="168.830151"></ellipse>
    </defs>
    <g id="Page-1" stroke="none" stroke-width="1" fill="none" fill-rule="evenodd">
        <g id="Artboard">
            <g id="Group-4" transform="translate(-80.000000, 74.000000)">
                <g id="Group" transform="translate(0.000000, 84.000000)" stroke-linecap="square">
                    <path d="M1305.5,0.5 L1305.5,1069.5" id="Line" stroke="url(#radialGradient-1)"></path>
                    <path d="M1976.5,588.5 L0.5,588.5" id="Line-2" stroke="url(#linearGradient-2)"></path>
                </g>
                <circle id="Oval-4-Copy-2" fill-opacity="0.267210145" fill="#E2E2E2" cx="1644" cy="337" r="337"></circle>
                <circle id="Oval-4-Copy" fill-opacity="0.358327672" fill="#E2E2E2" cx="1814" cy="946" r="158"></circle>
                <circle id="Oval-5-Copy-2" fill-opacity="0.102751359" fill="#D8D8D8" cx="1562.5" cy="1009.5" r="86.5"></circle>
                <g id="Group-Copy" transform="translate(608.000000, 423.000000)">
                    <g id="Group-3">
                        <g id="Rectangle-7" transform="translate(390.658749, 33.124903)">
                            <mask id="mask-4" fill="white">
                                <use xlink:href="#path-3"></use>
                            </mask>
                            <use id="Mask" fill-opacity="0.825464221" fill="#D5D5D5" xlink:href="#path-3"></use>
                            <polygon fill="url(#linearGradient-5)" mask="url(#mask-4)" points="-401.303402 -363.305389 689.773487 -363.305389 689.773487 731.953504 -401.303402 731.953504"></polygon>
                        </g>
                        <g id="Group-2">
                            <path d="M327.327077,224.658026 C311.825873,215.65578 293.828357,210.503417 274.632036,210.503417 C266.254954,210.503417 258.106167,211.484613 250.293505,213.338765 C256.999749,200.516838 260.793988,185.919698 260.793988,170.432969 C260.793988,119.385751 219.570049,78.0038041 168.717743,78.0038041 C117.865437,78.0038041 76.6414985,119.385751 76.6414985,170.432969 C76.6414985,175.255288 77.0093878,179.991352 77.7185298,184.614423 C51.7252288,186.372165 26.4908748,190.909392 2.30795894,197.93249 C0.789993845,188.814634 0,179.449275 0,169.898697 C0,76.6563787 75.299218,1.06854526 168.185511,1.06854526 C261.071803,1.06854526 336.371021,76.6563787 336.371021,169.898697 C336.371021,189.065523 333.189281,207.486366 327.327077,224.658026 Z" id="Combined-Shape" fill="#44BD8F"></path>
                            <g id="Oval-4-Copy-2">
                                <mask id="mask-7" fill="white">
                                    <use xlink:href="#path-6"></use>
                                </mask>
                                <use id="Mask" fill-opacity="0" fill="#E2E2E2" xlink:href="#path-6"></use>
                                <ellipse id="Oval-5-Copy-3" fill="#44BD8F" mask="url(#mask-7)" cx="273.035339" cy="313.618034" rx="92.0762448" ry="92.4291652"></ellipse>
                                <path d="M240.439387,216.19619 C199.021743,230.450127 169.249976,269.879652 169.249976,316.289398 C169.249976,374.713382 216.431132,422.075378 274.632036,422.075378 C332.832941,422.075378 380.014097,374.713382 380.014097,316.289398 C380.014097,315.288305 380.000244,314.29046 379.972721,313.296045 C436.286876,376.892784 470.493644,460.655321 470.493644,552.4379 C470.493644,751.315503 309.887084,912.537654 111.768852,912.537654 C-86.3493798,912.537654 -246.95594,751.315503 -246.95594,552.4379 C-246.95594,353.560298 -86.3493798,192.338147 111.768852,192.338147 C157.116355,192.338147 200.498579,200.78476 240.439387,216.19619 Z" id="Combined-Shape" fill="#EE9F43" mask="url(#mask-7)"></path>
                            </g>
                        </g>
                    </g>
                </g>
            </g>
        </g>
    </g>
</svg>