<?xml version="1.0" encoding="UTF-8"?>
<svg width="1024px" height="600px" viewBox="0 0 1024 600" version="1.1" xmlns="http://www.w3.org/2000/svg" xmlns:xlink="http://www.w3.org/1999/xlink">
    <!-- Generator: Sketch 48.1 (47250) - http://www.bohemiancoding.com/sketch -->
    <title>扶뒬못</title>
    <desc>Created with Sketch.</desc>
    <defs>
        <circle id="path-1" cx="261.5" cy="261.5" r="261.5"></circle>
    </defs>
    <g id="Page-1" stroke="none" stroke-width="1" fill="none" fill-rule="evenodd">
        <g id="扶뒬못">
            <g id="Group-4" transform="translate(-23.000000, 177.000000)">
                <g id="Group" transform="translate(0.000000, 221.000000)">
                    <circle id="Oval-4-Copy" fill-opacity="0.452502264" fill="#E2E2E2" cx="199" cy="75" r="75"></circle>
                    <circle id="Oval-5-Copy-2" fill-opacity="0.564254982" fill="#D8D8D8" cx="41" cy="156" r="41"></circle>
                </g>
                <g id="Group-2" transform="translate(593.000000, 0.000000)">
                    <path d="M508.938198,349 C484.836449,335.028952 456.853358,327.032734 427.006329,327.032734 C413.981384,327.032734 401.3114,328.555504 389.164033,331.433057 C399.591107,311.534049 405.490506,288.879998 405.490506,264.845349 C405.490506,185.622549 341.394259,121.39978 262.327532,121.39978 C183.260804,121.39978 119.164557,185.622549 119.164557,264.845349 C119.164557,272.329353 119.736563,279.679494 120.839158,286.854275 C80.4239751,289.582205 41.1888261,296.62376 3.58848548,307.523268 C1.2283067,293.372798 0,278.838217 0,264.016184 C0,119.308641 117.077538,2 261.5,2 C405.922462,2 523,119.308641 523,264.016184 C523,293.762166 518.052932,322.350419 508.938198,349 Z" id="Combined-Shape" fill="#F3F2F2"></path>
                    <g id="Oval-4-Copy-2">
                        <mask id="mask-2" fill="white">
                            <use xlink:href="#path-1"></use>
                        </mask>
                        <use id="Mask" fill-opacity="0" fill="#F3F3F3" xlink:href="#path-1"></use>
                        <circle id="Oval-5-Copy-3" fill="#F3F2F2" mask="url(#mask-2)" cx="424.523734" cy="485.761076" r="143.162975"></circle>
                        <path d="M373.842546,334.864971 C309.445122,356.942808 263.155063,418.01496 263.155063,489.898734 C263.155063,580.39129 336.513774,653.75 427.006329,653.75 C517.498884,653.75 590.857595,580.39129 590.857595,489.898734 C590.857595,488.348147 590.836056,486.802591 590.793262,485.262349 C678.35224,583.766953 731.537975,713.50624 731.537975,855.667722 C731.537975,1163.70804 481.82196,1413.42405 173.781646,1413.42405 C-134.258669,1413.42405 -383.974684,1163.70804 -383.974684,855.667722 C-383.974684,547.627407 -134.258669,297.911392 173.781646,297.911392 C244.289337,297.911392 311.741352,310.9943 373.842546,334.864971 Z" id="Combined-Shape" fill="#F3F2F2" mask="url(#mask-2)"></path>
                    </g>
                </g>
            </g>
        </g>
    </g>
</svg>