<?xml version="1.0" encoding="UTF-8"?>
<svg width="2121px" height="1301px" viewBox="0 0 2121 1301" version="1.1" xmlns="http://www.w3.org/2000/svg" xmlns:xlink="http://www.w3.org/1999/xlink">
    <!-- Generator: Sketch 48.1 (47250) - http://www.bohemiancoding.com/sketch -->
    <title>Artboard</title>
    <desc>Created with Sketch.</desc>
    <defs>
        <radialGradient cx="50%" cy="0%" fx="50%" fy="0%" r="100%" gradientTransform="translate(0.500000,0.000000),scale(1.000000,0.002804),rotate(90.000000),translate(-0.500000,-0.000000)" id="radialGradient-1">
            <stop stop-color="#E7E6E6" offset="0%"></stop>
            <stop stop-color="#E8E8E8" stop-opacity="0.239130435" offset="100%"></stop>
        </radialGradient>
        <linearGradient x1="100%" y1="0%" x2="25.3392752%" y2="0%" id="linearGradient-2">
            <stop stop-color="#ECECEC" offset="0%"></stop>
            <stop stop-color="#D4D4D4" stop-opacity="0" offset="98.2461735%"></stop>
        </linearGradient>
        <path d="M126.337016,75.2254292 C129.126669,66.5362248 135.232475,62.1916226 144.654431,62.1916226 C154.076388,62.1916226 160.392129,66.5362248 163.601654,75.2254292 L163.601654,236.441694 C158.524915,242.646092 152.209174,245.74829 144.654431,245.74829 C137.099689,245.74829 130.993884,242.646092 126.337016,236.441694 L126.337016,219.558677 C111.057339,233.903796 94.6236877,241.076248 77.0355701,241.076248 C54.8305715,241.076248 36.4732491,233.021033 21.9630521,216.91036 C7.56278077,200.468647 0.362753112,179.944399 0.362753112,155.337002 C0.362753112,131.170994 7.56278077,111.032955 21.9630521,94.922283 C36.3633234,78.8116106 54.3908735,70.7563952 76.0462434,70.7563952 C94.7336184,70.7563952 111.497042,78.4805743 126.337016,93.9291643 L126.337016,75.2254292 Z M38.2869421,155.337002 C38.2869421,170.785592 42.4090954,183.36497 50.6535255,193.075512 C59.1178071,202.896401 69.7804435,207.806772 82.6417545,207.806772 C96.3824714,207.806772 107.484804,203.061919 115.949086,193.572071 C124.413367,183.751182 128.645445,171.28215 128.645445,156.164601 C128.645445,141.047052 124.413367,128.57802 115.949086,118.757131 C107.484804,109.156936 96.4923955,104.35691 82.9715301,104.35691 C70.2201448,104.35691 59.5575084,109.212109 50.9833011,118.922651 C42.5190195,128.74354 38.2869421,140.881536 38.2869421,155.337002 Z M303.756265,102.701713 C302.528651,110.732363 299.335492,116.249689 294.176789,119.25369 C289.018085,122.257692 281.988202,122.202519 273.087139,119.088171 C268.250406,109.156934 262.259543,104.191391 255.114371,104.191391 C251.706673,104.191391 248.793685,105.322431 246.375318,107.584546 C243.956952,109.846661 242.747787,112.743228 242.747787,116.274334 C242.747787,122.45377 249.892853,128.577941 264.183199,134.64703 C283.859905,143.143754 297.105758,150.978279 303.921153,158.150839 C310.736549,165.323398 314.144195,174.978622 314.144195,187.1168 C314.144195,202.675737 308.428143,215.696496 296.995866,226.179468 C285.893367,236.110704 272.482629,241.076248 256.763248,241.076248 C229.831443,241.076248 210.759614,227.889971 199.547189,201.517021 C198.966697,192.544259 202.438403,186.35149 209.962308,182.938714 C217.486214,179.525937 224.567325,180.808286 231.205643,186.78576 C235.602672,194.510055 238.955357,199.420426 241.263797,201.517021 C245.770752,205.710209 251.157033,207.806772 257.4228,207.806772 C269.954333,207.806772 276.220006,202.068811 276.220006,190.592715 C276.220006,183.971891 271.383347,177.792548 261.709882,172.0545 C257.972407,170.1786 254.234988,168.3579 250.497513,166.592347 C246.760038,164.826794 242.967657,163.006095 239.120256,161.130195 C228.347534,155.833535 220.762772,150.536955 216.365743,145.240296 C210.75953,138.509124 207.956466,129.847009 207.956466,119.25369 C207.956466,105.239612 212.738164,93.6533438 222.301703,84.4945369 C232.085093,75.33573 243.956895,70.7563952 257.917463,70.7563952 C278.473575,70.7563952 293.753023,81.4047278 303.756265,102.701713 Z M384.551277,75.2254292 L384.551277,236.441694 C380.231926,242.946792 374.048634,246.199341 366.001402,246.199341 C357.954169,246.199341 351.770877,242.946792 347.451527,236.441694 L347.451527,75.2254292 C350.814714,67.3437029 356.998006,63.4028398 366.001402,63.4028398 C375.004798,63.4028398 381.188089,67.3437029 384.551277,75.2254292 Z M341.845342,25.1391441 C341.845342,18.6286669 344.20871,12.1535894 348.935517,7.40866532 C353.662323,2.66374125 359.323414,0.291314811 365.918958,0.291314811 C372.624428,0.291314811 378.34048,2.66374125 383.067287,7.40866532 C387.794093,12.0432423 390.157461,17.7260312 390.157461,24.4572026 C390.157461,31.1883739 387.794093,36.9263355 383.067287,41.6712596 C378.450406,46.4161837 372.789315,48.7886101 366.083846,48.7886101 C359.378376,48.7886101 353.662323,46.4161837 348.935517,41.6712596 C344.20871,36.9263355 341.845342,31.9806625 341.845342,25.1391441 Z M524.870776,102.701713 C523.925042,111.09668 520.782106,116.614006 515.44197,119.25369 C510.101833,121.893375 503.021726,121.838201 494.201649,119.088171 C489.364917,109.156934 483.374054,104.191391 476.228881,104.191391 C472.821184,104.191391 469.908195,105.322431 467.489829,107.584546 C465.071463,109.846661 463.862298,112.743228 463.862298,116.274334 C463.862298,122.45377 471.007364,128.577941 485.297709,134.64703 C504.974416,143.143754 518.220268,150.978279 525.035664,158.150839 C531.851059,165.323398 535.258706,174.978622 535.258706,187.1168 C535.258706,202.675737 529.542654,215.696496 518.110377,226.179468 C507.007878,236.110704 493.597139,241.076248 477.877759,241.076248 C450.945954,241.076248 431.874125,227.889971 420.6617,201.517021 C421.822845,192.793887 425.444712,187.062366 431.527301,184.322458 C437.609891,181.58255 444.540842,182.403651 452.320154,186.78576 C456.717183,194.510055 460.069868,199.420426 462.378308,201.517021 C466.885263,205.710209 472.271543,207.806772 478.53731,207.806772 C491.068844,207.806772 497.334517,202.068811 497.334517,190.592715 C497.334517,183.971891 492.497857,177.792548 482.824393,172.0545 C479.086918,170.1786 475.349499,168.3579 471.612024,166.592347 C467.874549,164.826794 464.082168,163.006095 460.234767,161.130195 C449.462045,155.833535 441.877283,150.536955 437.480254,145.240296 C431.874041,138.509124 429.070977,129.847009 429.070977,119.25369 C429.070977,105.239612 433.852675,93.6533438 443.416214,84.4945369 C453.199604,75.33573 465.071405,70.7563952 479.031974,70.7563952 C499.588086,70.7563952 514.867534,81.4047278 524.870776,102.701713 Z" id="path-3"></path>
        <ellipse id="path-5" cx="168.185511" cy="168.830151" rx="168.185511" ry="168.830151"></ellipse>
    </defs>
    <g id="Page-1" stroke="none" stroke-width="1" fill="none" fill-rule="evenodd">
        <g id="Artboard">
            <g id="Group-4" transform="translate(-112.000000, 74.000000)">
                <g id="Group" transform="translate(0.000000, 74.000000)" stroke-linecap="square">
                    <path d="M1305.5,0.5 L1305.5,1069.5" id="Line" stroke="url(#radialGradient-1)"></path>
                    <path d="M1976.5,588.5 L0.5,588.5" id="Line-2" stroke="url(#linearGradient-2)"></path>
                </g>
                <circle id="Oval-4-Copy-2" fill-opacity="0.267210145" fill="#E2E2E2" cx="1676" cy="337" r="337"></circle>
                <circle id="Oval-4-Copy" fill-opacity="0.358327672" fill="#E2E2E2" cx="1846" cy="946" r="158"></circle>
                <circle id="Oval-5-Copy-2" fill-opacity="0.102751359" fill="#D8D8D8" cx="1594.5" cy="1009.5" r="86.5"></circle>
                <g id="Group-Copy" transform="translate(640.000000, 404.000000)">
                    <g id="Group-3">
                        <g id="Rectangle-7" transform="translate(372.000000, 49.000000)">
                            <mask id="mask-4" fill="white">
                                <use xlink:href="#path-3"></use>
                            </mask>
                            <use id="Mask" fill-opacity="0.825464221" fill="#D5D5D5" xlink:href="#path-3"></use>
                            <polygon fill="#444444" mask="url(#mask-4)" points="-318.272985 -288.136832 547.058076 -288.136832 547.058076 580.510969 -318.272985 580.510969"></polygon>
                        </g>
                        <g id="Group-2">
                            <path d="M327.327077,224.658026 C311.825873,215.65578 293.828357,210.503417 274.632036,210.503417 C266.254954,210.503417 258.106167,211.484613 250.293505,213.338765 C256.999749,200.516838 260.793988,185.919698 260.793988,170.432969 C260.793988,119.385751 219.570049,78.0038041 168.717743,78.0038041 C117.865437,78.0038041 76.6414985,119.385751 76.6414985,170.432969 C76.6414985,175.255288 77.0093878,179.991352 77.7185298,184.614423 C51.7252288,186.372165 26.4908748,190.909392 2.30795894,197.93249 C0.789993845,188.814634 0,179.449275 0,169.898697 C0,76.6563787 75.299218,1.06854526 168.185511,1.06854526 C261.071803,1.06854526 336.371021,76.6563787 336.371021,169.898697 C336.371021,189.065523 333.189281,207.486366 327.327077,224.658026 Z" id="Combined-Shape" fill="#44BD8F"></path>
                            <g id="Oval-4-Copy-2">
                                <mask id="mask-6" fill="white">
                                    <use xlink:href="#path-5"></use>
                                </mask>
                                <use id="Mask" fill-opacity="0" fill="#E2E2E2" xlink:href="#path-5"></use>
                                <ellipse id="Oval-5-Copy-3" fill="#44BD8F" mask="url(#mask-6)" cx="273.035339" cy="313.618034" rx="92.0762448" ry="92.4291652"></ellipse>
                                <path d="M240.439387,216.19619 C199.021743,230.450127 169.249976,269.879652 169.249976,316.289398 C169.249976,374.713382 216.431132,422.075378 274.632036,422.075378 C332.832941,422.075378 380.014097,374.713382 380.014097,316.289398 C380.014097,315.288305 380.000244,314.29046 379.972721,313.296045 C436.286876,376.892784 470.493644,460.655321 470.493644,552.4379 C470.493644,751.315503 309.887084,912.537654 111.768852,912.537654 C-86.3493798,912.537654 -246.95594,751.315503 -246.95594,552.4379 C-246.95594,353.560298 -86.3493798,192.338147 111.768852,192.338147 C157.116355,192.338147 200.498579,200.78476 240.439387,216.19619 Z" id="Combined-Shape" fill="#EE9F43" mask="url(#mask-6)"></path>
                            </g>
                        </g>
                    </g>
                </g>
            </g>
        </g>
    </g>
</svg>