<?xml version="1.0" encoding="UTF-8"?>
<svg width="1002px" height="315px" viewBox="0 0 1002 315" version="1.1" xmlns="http://www.w3.org/2000/svg" xmlns:xlink="http://www.w3.org/1999/xlink">
    <!-- Generator: Sketch 48.1 (47250) - http://www.bohemiancoding.com/sketch -->
    <title>Group</title>
    <desc>Created with Sketch.</desc>
    <defs>
        <path d="M149.648438,88.765625 C152.952832,78.5124078 160.185266,73.3857993 171.345741,73.3857993 C182.506217,73.3857993 189.987324,78.5124078 193.789062,88.765625 L193.789062,279 C187.775575,286.321158 180.294468,289.981736 171.345741,289.981736 C162.397015,289.981736 155.16458,286.321158 149.648438,279 L149.648438,259.078125 C131.549389,276.005293 112.083438,284.46875 91.25,284.46875 C64.9477852,284.46875 43.2032109,274.963637 26.015625,255.953125 C8.95824805,236.551986 0.4296875,212.333479 0.4296875,183.296875 C0.4296875,154.781107 8.95824805,131.018324 26.015625,112.007812 C43.073002,92.9973008 64.4269551,83.4921875 90.078125,83.4921875 C112.213652,83.4921875 132.070225,92.6066797 149.648438,110.835937 L149.648438,88.765625 Z M45.3515625,183.296875 C45.3515625,201.526133 50.2343262,216.369734 60,227.828125 C70.0260918,239.416725 82.6561738,245.210938 97.890625,245.210938 C114.166748,245.210938 127.317658,239.612035 137.34375,228.414062 C147.369842,216.825463 152.382812,202.112068 152.382812,184.273438 C152.382812,166.434807 147.369842,151.721412 137.34375,140.132812 C127.317658,128.804631 114.296955,123.140625 98.28125,123.140625 C83.1770078,123.140625 70.5469258,128.869734 60.390625,140.328125 C50.3645332,151.916725 45.3515625,166.239498 45.3515625,183.296875 Z M359.804688,121.1875 C358.350556,130.663627 354.568203,137.174043 348.457627,140.71875 C342.347052,144.263457 334.02003,144.198353 323.476563,140.523438 C317.747367,128.804629 310.651084,122.945312 302.1875,122.945312 C298.151021,122.945312 294.700535,124.279935 291.835938,126.949219 C288.97134,129.618503 287.539063,133.036438 287.539063,137.203125 C287.539063,144.494828 296.00252,151.721318 312.929688,158.882812 C336.237096,168.908904 351.927043,178.153604 360,186.617188 C368.072957,195.080771 372.109375,206.473887 372.109375,220.796875 C372.109375,239.156342 365.338609,254.520771 351.796875,266.890625 C338.645768,278.609434 322.76051,284.46875 304.140625,284.46875 C272.239424,284.46875 249.648504,268.90901 236.367188,237.789062 C235.679584,227.201249 239.791881,219.893813 248.704081,215.866754 C257.61628,211.839695 266.003982,213.352861 273.867188,220.40625 C279.075547,229.520879 283.046861,235.315092 285.78125,237.789062 C291.119818,242.737004 297.499963,245.210938 304.921875,245.210938 C319.765699,245.210938 327.1875,238.440172 327.1875,224.898438 C327.1875,217.085898 321.458391,209.794305 310,203.023438 C305.572895,200.809885 301.145855,198.661469 296.71875,196.578125 C292.291645,194.494781 287.799502,192.346365 283.242188,190.132812 C270.481707,183.882781 261.497422,177.632844 256.289063,171.382812 C249.648404,163.440064 246.328125,153.218813 246.328125,140.71875 C246.328125,124.182209 251.992131,110.510471 263.320313,99.703125 C274.908912,88.8957793 288.971271,83.4921875 305.507813,83.4921875 C329.856893,83.4921875 347.95567,96.057166 359.804688,121.1875 Z M455.507812,88.765625 L455.507812,279 C450.391465,286.675982 443.067246,290.513974 433.535156,290.513974 C424.003066,290.513974 416.678848,286.675982 411.5625,279 L411.5625,88.765625 C415.546255,79.4652279 422.870474,74.8150294 433.535156,74.8150294 C444.199839,74.8150294 451.524057,79.4652279 455.507812,88.765625 Z M404.921875,29.6640625 C404.921875,21.9817324 407.721326,14.3411738 413.320312,8.7421875 C418.919299,3.14320117 425.624961,0.34375 433.4375,0.34375 C441.380248,0.34375 448.151014,3.14320117 453.75,8.7421875 C459.348986,14.2109648 462.148438,20.916627 462.148438,28.859375 C462.148438,36.802123 459.348986,43.5728887 453.75,49.171875 C448.281223,54.7708613 441.575561,57.5703125 433.632812,57.5703125 C425.690064,57.5703125 418.919299,54.7708613 413.320312,49.171875 C407.721326,43.5728887 404.921875,37.7370195 404.921875,29.6640625 Z M621.71875,121.1875 C620.598511,131.09352 616.875648,137.603936 610.550161,140.71875 C604.224675,143.833564 595.838163,143.76846 585.390625,140.523438 C579.66143,128.804629 572.565146,122.945312 564.101562,122.945312 C560.065084,122.945312 556.614598,124.279935 553.75,126.949219 C550.885402,129.618503 549.453125,133.036438 549.453125,137.203125 C549.453125,144.494828 557.916582,151.721318 574.84375,158.882812 C598.151158,168.908904 613.841105,178.153604 621.914062,186.617188 C629.98702,195.080771 634.023438,206.473887 634.023438,220.796875 C634.023438,239.156342 627.252672,254.520771 613.710938,266.890625 C600.55983,278.609434 584.674572,284.46875 566.054688,284.46875 C534.153486,284.46875 511.562566,268.90901 498.28125,237.789062 C499.656646,227.495809 503.946812,220.732644 511.151748,217.499566 C518.356683,214.266488 526.566517,215.235383 535.78125,220.40625 C540.989609,229.520879 544.960924,235.315092 547.695312,237.789062 C553.033881,242.737004 559.414025,245.210938 566.835938,245.210938 C581.679762,245.210938 589.101562,238.440172 589.101562,224.898438 C589.101562,217.085898 583.372453,209.794305 571.914062,203.023438 C567.486957,200.809885 563.059918,198.661469 558.632812,196.578125 C554.205707,194.494781 549.713564,192.346365 545.15625,190.132812 C532.39577,183.882781 523.411484,177.632844 518.203125,171.382812 C511.562467,163.440064 508.242188,153.218813 508.242188,140.71875 C508.242188,124.182209 513.906193,110.510471 525.234375,99.703125 C536.822975,88.8957793 550.885334,83.4921875 567.421875,83.4921875 C591.770955,83.4921875 609.869732,96.057166 621.71875,121.1875 Z" id="path-1"></path>
        <circle id="path-3" cx="158" cy="158" r="158"></circle>
    </defs>
    <g id="Artboard" stroke="none" stroke-width="1" fill="none" fill-rule="evenodd" transform="translate(-560.000000, -494.000000)">
        <g id="Group" transform="translate(560.000000, 493.000000)">
            <g id="Group-3">
                <g id="Rectangle-7" transform="translate(367.000000, 13.000000)">
                    <mask id="mask-2" fill="white">
                        <use xlink:href="#path-1"></use>
                    </mask>
                    <use id="Mask" fill-opacity="0.825464221" fill="#D5D5D5" xlink:href="#path-1"></use>
                    <polygon fill="#34B697" mask="url(#mask-2)" points="-377 -340 648 -340 648 685 -377 685"></polygon>
                </g>
                <g id="Group-2">
                    <path d="M307.503768,210.246617 C292.941335,201.821849 276.033769,197 258,197 C250.130243,197 242.474957,197.918255 235.135438,199.653466 C241.435544,187.654042 245,173.993283 245,159.5 C245,111.727369 206.272631,73 158.5,73 C110.727369,73 72,111.727369 72,159.5 C72,164.012975 72.3456095,168.44523 73.011805,172.771739 C48.5926886,174.416725 24.8865565,178.662896 2.16818626,185.235476 C0.742150896,176.702514 0,167.937926 0,159 C0,71.7390095 70.7390095,1 158,1 C245.26099,1 316,71.7390095 316,159 C316,176.937309 313.010949,194.176488 307.503768,210.246617 Z" id="Combined-Shape" fill="#34B697"></path>
                    <g id="Oval-4-Copy-2">
                        <mask id="mask-4" fill="white">
                            <use xlink:href="#path-3"></use>
                        </mask>
                        <use id="Mask" fill-opacity="0" fill="#E2E2E2" xlink:href="#path-3"></use>
                        <circle id="Oval-5-Copy-3" fill="#34B697" mask="url(#mask-4)" cx="256.5" cy="293.5" r="86.5"></circle>
                        <path d="M225.878097,202.327592 C186.968754,215.667165 159,252.567356 159,296 C159,350.67619 203.32381,395 258,395 C312.67619,395 357,350.67619 357,296 C357,295.063125 356.986986,294.12929 356.96113,293.198666 C409.864834,352.715788 442,431.105109 442,517 C442,703.119961 291.119961,854 105,854 C-81.1199607,854 -232,703.119961 -232,517 C-232,330.880039 -81.1199607,180 105,180 C147.601206,180 188.356152,187.904778 225.878097,202.327592 Z" id="Combined-Shape" fill="#EE9F43" mask="url(#mask-4)"></path>
                    </g>
                </g>
            </g>
        </g>
    </g>
</svg>