<?xml version="1.0" encoding="UTF-8"?>
<svg width="316px" height="315px" viewBox="0 0 316 315" version="1.1" xmlns="http://www.w3.org/2000/svg" xmlns:xlink="http://www.w3.org/1999/xlink">
    <!-- Generator: Sketch 48.1 (47250) - http://www.bohemiancoding.com/sketch -->
    <title>Group 2</title>
    <desc>Created with Sketch.</desc>
    <defs>
        <circle id="path-1" cx="158" cy="158" r="158"></circle>
    </defs>
    <g id="Desktop" stroke="none" stroke-width="1" fill="none" fill-rule="evenodd" transform="translate(-10.000000, -312.000000)">
        <g id="Group" transform="translate(0.000000, 2.000000)">
            <g id="Group-2" transform="translate(10.000000, 309.000000)">
                <path d="M307.503768,210.246617 C292.941335,201.821849 276.033769,197 258,197 C250.130243,197 242.474957,197.918255 235.135438,199.653466 C241.435544,187.654042 245,173.993283 245,159.5 C245,111.727369 206.272631,73 158.5,73 C110.727369,73 72,111.727369 72,159.5 C72,164.012975 72.3456095,168.44523 73.011805,172.771739 C48.5926886,174.416725 24.8865565,178.662896 2.16818626,185.235476 C0.742150896,176.702514 0,167.937926 0,159 C0,71.7390095 70.7390095,1 158,1 C245.26099,1 316,71.7390095 316,159 C316,176.937309 313.010949,194.176488 307.503768,210.246617 Z" id="Combined-Shape" fill="#44BD8F"></path>
                <g id="Oval-4-Copy-2">
                    <mask id="mask-2" fill="white">
                        <use xlink:href="#path-1"></use>
                    </mask>
                    <use id="Mask" fill-opacity="0" fill="#E2E2E2" xlink:href="#path-1"></use>
                    <circle id="Oval-5-Copy-3" fill="#44BD8F" mask="url(#mask-2)" cx="256.5" cy="293.5" r="86.5"></circle>
                    <path d="M225.878097,202.327592 C186.968754,215.667165 159,252.567356 159,296 C159,350.67619 203.32381,395 258,395 C312.67619,395 357,350.67619 357,296 C357,295.063125 356.986986,294.12929 356.96113,293.198666 C409.864834,352.715788 442,431.105109 442,517 C442,703.119961 291.119961,854 105,854 C-81.1199607,854 -232,703.119961 -232,517 C-232,330.880039 -81.1199607,180 105,180 C147.601206,180 188.356152,187.904778 225.878097,202.327592 Z" id="Combined-Shape" fill="#EE9F43" mask="url(#mask-2)"></path>
                </g>
            </g>
        </g>
    </g>
</svg>