<?xml version="1.0" standalone="no"?><!DOCTYPE svg PUBLIC "-//W3C//DTD SVG 1.1//EN" "http://www.w3.org/Graphics/SVG/1.1/DTD/svg11.dtd"><svg t="1502366203618" class="icon" style="" viewBox="0 0 1252 1024" version="1.1" xmlns="http://www.w3.org/2000/svg" p-id="2523" xmlns:xlink="http://www.w3.org/1999/xlink" width="244.53125" height="200"><defs><style type="text/css"></style></defs><path d="M995.555556 256m-85.333333 0a1.5 1.5 0 1 0 170.666667 0 1.5 1.5 0 1 0-170.666667 0ZM1243.591111 1024C1247.971556 1024 1251.555556 1020.302222 1251.555556 1015.751111L1251.555556 8.248889C1251.555556 3.697778 1247.971556 0 1243.591111 0L8.021333 0C3.584 0 0 3.697778 0 8.248889l0 1007.502222C0 1020.302222 3.584 1024 8.021333 1024L1243.591111 1024zM56.888889 56.888889l1137.777778 0 0 910.222222L56.888889 967.111111 56.888889 56.888889zM848.156444 441.742222c-4.892444-7.68-14.734222-9.500444-22.072889-4.323556l-157.184 110.535111c-3.640889 2.56-8.590222 1.536-10.865778-2.389333L472.803556 225.621333C468.366222 217.884444 461.255111 217.827556 457.102222 225.792l-18.318222 35.271111L113.664 888.035556c-4.152889 8.021333-0.341333 14.449778 8.476444 14.449778l1004.430222 0c8.533333 0 12.003556-6.144 7.168-13.710222L848.156444 441.742222z" fill="#bfbfbf" p-id="2524"></path></svg>